<?xml version="1.0" encoding="UTF-8"?>
<svg xmlns="http://www.w3.org/2000/svg" width="1440" height="1024" viewBox="0 0 1440 1024">

<defs>
  <linearGradient id="hue" x1="0" y1="0" x2="1" y2="0">
    <stop offset="0%" stop-color="#FF3B30"/>
    <stop offset="17%" stop-color="#FF9500"/>
    <stop offset="33%" stop-color="#FFD60A"/>
    <stop offset="50%" stop-color="#34C759"/>
    <stop offset="67%" stop-color="#00C7BE"/>
    <stop offset="83%" stop-color="#0A84FF"/>
    <stop offset="100%" stop-color="#BF5AF2"/>
  </linearGradient>
  <linearGradient id="shade" x1="0" y1="0" x2="0" y2="1">
    <stop offset="0%" stop-color="#FFFFFF" stop-opacity="0.95"/>
    <stop offset="45%" stop-color="#FFFFFF" stop-opacity="0"/>
    <stop offset="55%" stop-color="#000000" stop-opacity="0"/>
    <stop offset="100%" stop-color="#000000" stop-opacity="0.85"/>
  </linearGradient>
  <linearGradient id="brand" x1="0" y1="0" x2="1" y2="1">
    <stop offset="0%" stop-color="#6C4CF1"/>
    <stop offset="50%" stop-color="#B14CF1"/>
    <stop offset="100%" stop-color="#F14CA6"/>
  </linearGradient>
  <linearGradient id="cool" x1="0" y1="0" x2="1" y2="0">
    <stop offset="0%" stop-color="#6C4CF1"/>
    <stop offset="100%" stop-color="#3E8BFF"/>
  </linearGradient>
  <linearGradient id="skywarm" x1="0" y1="0" x2="1" y2="0">
    <stop offset="0%" stop-color="#F5A623"/>
    <stop offset="100%" stop-color="#F14CA6"/>
  </linearGradient>
  <linearGradient id="photo" x1="0" y1="0" x2="1" y2="1">
    <stop offset="0%" stop-color="#1B1B4A"/>
    <stop offset="55%" stop-color="#5A2E96"/>
    <stop offset="100%" stop-color="#D9488B"/>
  </linearGradient>
  <linearGradient id="sun" x1="0" y1="0" x2="1" y2="1">
    <stop offset="0%" stop-color="#F5A623"/>
    <stop offset="100%" stop-color="#F14CA6"/>
  </linearGradient>
  <pattern id="checker" width="24" height="24" patternUnits="userSpaceOnUse">
    <rect width="24" height="24" fill="#2A2A34"/>
    <rect width="12" height="12" fill="#22222B"/>
    <rect x="12" y="12" width="12" height="12" fill="#22222B"/>
  </pattern>
  <pattern id="checkerL" width="24" height="24" patternUnits="userSpaceOnUse">
    <rect width="24" height="24" fill="#FFFFFF"/>
    <rect width="12" height="12" fill="#E6E6EC"/>
    <rect x="12" y="12" width="12" height="12" fill="#E6E6EC"/>
  </pattern>
  <pattern id="grid" width="32" height="32" patternUnits="userSpaceOnUse">
    <path d="M32 0 L0 0 0 32" fill="none" stroke="#2A2A34" stroke-width="1"/>
  </pattern>
</defs>
<rect x="0" y="0" width="1440" height="1024" fill="#121218"/>
<rect x="0" y="0" width="1440" height="56" rx="0" fill="#1B1B23"/>
<line x1="0" y1="56" x2="1440" y2="56" stroke="#2F2F3B" stroke-width="1" stroke-linecap="round"/>
<circle cx="28" cy="28" r="12" fill="url(#brand)"/>
<text x="48" y="34" font-family="Inter, &apos;Segoe UI&apos;, Roboto, Arial, sans-serif" font-size="14" font-weight="600" fill="#F2F2F7" text-anchor="start">Креатив_Instagram_03</text>
<text x="220" y="34" font-family="Inter, &apos;Segoe UI&apos;, Roboto, Arial, sans-serif" font-size="11" font-weight="400" fill="#2FBF71" text-anchor="start">✓ Сохранено в 14:32</text>
<rect x="420" y="12" width="220" height="32" rx="8" fill="#24242E"/>
<circle cx="434" cy="26" r="6" fill="none" stroke="#6E6E80" stroke-width="1.4"/>
<path d="M439 31 L444 36" fill="none" stroke="#6E6E80" stroke-width="1.4" stroke-linecap="round" stroke-linejoin="round"/>
<text x="452" y="33" font-family="Inter, &apos;Segoe UI&apos;, Roboto, Arial, sans-serif" font-size="12" font-weight="400" fill="#6E6E80" text-anchor="start">Поиск и команды</text>
<rect x="610" y="17" width="24" height="22" rx="5" fill="#2E2E3A"/>
<text x="622" y="32" font-family="Inter, &apos;Segoe UI&apos;, Roboto, Arial, sans-serif" font-size="11" font-weight="600" fill="#A8A8B8" text-anchor="middle">K</text>
<text x="588" y="33" font-family="Inter, &apos;Segoe UI&apos;, Roboto, Arial, sans-serif" font-size="11" font-weight="400" fill="#6E6E80" text-anchor="end">Ctrl</text>
<circle cx="700" cy="28" r="13" fill="#6C4CF1"/>
<text x="700" y="32.55" font-family="Inter, &apos;Segoe UI&apos;, Roboto, Arial, sans-serif" font-size="11.05" font-weight="600" fill="#FFFFFF" text-anchor="middle">ИС</text>
<circle cx="700" cy="28" r="15" fill="none" stroke="#1B1B23" stroke-width="2"/>
<circle cx="722" cy="28" r="13" fill="#F14CA6"/>
<text x="722" y="32.55" font-family="Inter, &apos;Segoe UI&apos;, Roboto, Arial, sans-serif" font-size="11.05" font-weight="600" fill="#FFFFFF" text-anchor="middle">АП</text>
<circle cx="722" cy="28" r="15" fill="none" stroke="#1B1B23" stroke-width="2"/>
<circle cx="744" cy="28" r="13" fill="#2BD9C3"/>
<text x="744" y="32.55" font-family="Inter, &apos;Segoe UI&apos;, Roboto, Arial, sans-serif" font-size="11.05" font-weight="600" fill="#FFFFFF" text-anchor="middle">МК</text>
<circle cx="744" cy="28" r="15" fill="none" stroke="#1B1B23" stroke-width="2"/>
<text x="790" y="33" font-family="Inter, &apos;Segoe UI&apos;, Roboto, Arial, sans-serif" font-size="11" font-weight="400" fill="#6E6E80" text-anchor="start">+1</text>
<path d="M841 21 h14 a2 2 0 0 1 2 2 v7 a2 2 0 0 1 -2 2 h-8 l-5 4 v-4 h-1 a2 2 0 0 1 -2 -2 v-7 a2 2 0 0 1 2 -2 z" fill="none" stroke="#A8A8B8" stroke-width="1.6" stroke-linecap="round" stroke-linejoin="round"/>
<circle cx="868" cy="18" r="7" fill="#E5484D"/>
<text x="868" y="22" font-family="Inter, &apos;Segoe UI&apos;, Roboto, Arial, sans-serif" font-size="9" font-weight="700" fill="#FFFFFF" text-anchor="middle">2</text>
<rect x="980" y="12" width="108" height="32" rx="8" fill="#24242E" stroke="#2F2F3B" stroke-width="1"/>
<text x="1034" y="33" font-family="Inter, &apos;Segoe UI&apos;, Roboto, Arial, sans-serif" font-size="13" font-weight="600" fill="#F2F2F7" text-anchor="middle">Поделиться</text>
<rect x="1096" y="12" width="130" height="32" rx="8" fill="url(#brand)"/>
<text x="1161" y="33" font-family="Inter, &apos;Segoe UI&apos;, Roboto, Arial, sans-serif" font-size="13" font-weight="600" fill="#FFFFFF" text-anchor="middle">Экспортировать</text>
<rect x="1240" y="12" width="32" height="32" rx="8" fill="#24242E"/>
<path d="M1258 28 a8 8 0 1 0 8 -11 a7 7 0 0 1 -8 11 z" fill="#A8A8B8"/>
<circle cx="1300" cy="28" r="16" fill="#6C4CF1"/>
<text x="1300" y="33.6" font-family="Inter, &apos;Segoe UI&apos;, Roboto, Arial, sans-serif" font-size="13.6" font-weight="600" fill="#FFFFFF" text-anchor="middle">ИС</text>
<text x="1326" y="33" font-family="Inter, &apos;Segoe UI&apos;, Roboto, Arial, sans-serif" font-size="12" font-weight="500" fill="#F2F2F7" text-anchor="start">Ирина</text>
<text x="1408" y="33" font-family="Inter, &apos;Segoe UI&apos;, Roboto, Arial, sans-serif" font-size="12" font-weight="400" fill="#6E6E80" text-anchor="start">▾</text>
<rect x="0" y="56" width="64" height="968" rx="0" fill="#1B1B23"/>
<line x1="64" y1="56" x2="64" y2="1024" stroke="#2F2F3B" stroke-width="1" stroke-linecap="round"/>
<path d="M22 80 L42 80 M32 70 L32 90" fill="none" stroke="#A8A8B8" stroke-width="1.6" stroke-linecap="round" stroke-linejoin="round"/>
<path d="M22 80 l-4 4 M22 80 l4 4" fill="none" stroke="#A8A8B8" stroke-width="1.6" stroke-linecap="round" stroke-linejoin="round"/>
<path d="M42 80 l-4 -4 M42 80 l4 -4" fill="none" stroke="#A8A8B8" stroke-width="1.6" stroke-linecap="round" stroke-linejoin="round"/>
<path d="M32 70 l-4 -4 M32 70 l-4 4" fill="none" stroke="#A8A8B8" stroke-width="1.6" stroke-linecap="round" stroke-linejoin="round"/>
<path d="M32 90 l4 -4 M32 90 l4 4" fill="none" stroke="#A8A8B8" stroke-width="1.6" stroke-linecap="round" stroke-linejoin="round"/>
<rect x="22" y="118" width="20" height="16" rx="2" fill="none" stroke="#A8A8B8" stroke-width="1.6" stroke-dasharray="4 3"/>
<ellipse cx="32" cy="170" rx="9" ry="7.5" fill="none" stroke="#A8A8B8" stroke-width="1.6"/>
<path d="M24 176 q-2 6 3 8" fill="none" stroke="#A8A8B8" stroke-width="1.6" stroke-linecap="round" stroke-linejoin="round"/>
<path d="M34 181 q-3 4 1 6" fill="none" stroke="#A8A8B8" stroke-width="1.6" stroke-linecap="round" stroke-linejoin="round"/>
<path d="M26 208 L26 224 L42 224" fill="none" stroke="#A8A8B8" stroke-width="1.6" stroke-linecap="round" stroke-linejoin="round"/>
<path d="M38 212 L38 224 L22 224" fill="none" stroke="#A8A8B8" stroke-width="1.6" stroke-linecap="round" stroke-linejoin="round"/>
<path d="M22 224 L38 224" fill="none" stroke="#A8A8B8" stroke-width="1.6" stroke-linecap="round" stroke-linejoin="round"/>
<line x1="16" y1="242" x2="48" y2="242" stroke="#2F2F3B" stroke-width="1" stroke-linecap="round"/>
<rect x="12" y="244" width="40" height="40" rx="10" fill="#6C4CF1"/>
<path d="M39 255 L30 266" fill="none" stroke="#FFFFFF" stroke-width="1.6" stroke-linecap="round" stroke-linejoin="round"/>
<path d="M28 266 q-6 2 -6 8 q6 1 8 -5 z" fill="#FFFFFF" opacity="0.9"/>
<rect x="24" y="304" width="16" height="11" rx="3" fill="none" stroke="#A8A8B8" stroke-width="1.6"/>
<path d="M29 315 L35 315" fill="none" stroke="#A8A8B8" stroke-width="1.6" stroke-linecap="round" stroke-linejoin="round"/>
<path d="M33 304 L33 315" fill="none" stroke="#A8A8B8" stroke-width="1.6" stroke-linecap="round" stroke-linejoin="round"/>
<path d="M26 348 L38 348 L40 358 L24 358 Z" fill="none" stroke="#A8A8B8" stroke-width="1.6" stroke-linecap="round" stroke-linejoin="round"/>
<circle cx="41" cy="362" r="3" fill="#A8A8B8"/>
<path d="M26 395 L38 395 M32 395 L32 409" fill="none" stroke="#A8A8B8" stroke-width="1.6" stroke-linecap="round" stroke-linejoin="round"/>
<path d="M29 409 L35 409" fill="none" stroke="#A8A8B8" stroke-width="1.6" stroke-linecap="round" stroke-linejoin="round"/>
<rect x="23" y="439" width="12" height="12" rx="2" fill="none" stroke="#A8A8B8" stroke-width="1.6"/>
<circle cx="37" cy="452" r="5" fill="none" stroke="#A8A8B8" stroke-width="1.6"/>
<line x1="16" y1="472" x2="48" y2="472" stroke="#2F2F3B" stroke-width="1" stroke-linecap="round"/>
<path d="M25 501 L37 489" fill="none" stroke="#A8A8B8" stroke-width="1.6" stroke-linecap="round" stroke-linejoin="round"/>
<rect x="35" y="485" width="6" height="6" rx="1.5" fill="none" stroke="#A8A8B8" stroke-width="1.6"/>
<circle cx="24" cy="502" r="2.5" fill="#A8A8B8"/>
<circle cx="30" cy="538" r="7" fill="none" stroke="#A8A8B8" stroke-width="1.6"/>
<path d="M35 543 L41 549" fill="none" stroke="#A8A8B8" stroke-width="1.6" stroke-linecap="round" stroke-linejoin="round"/>
<path d="M26 594 L26 584 q0 -6 4 -6 q4 0 4 6" fill="none" stroke="#A8A8B8" stroke-width="1.6" stroke-linecap="round" stroke-linejoin="round"/>
<path d="M30 588 L30 578" fill="none" stroke="#A8A8B8" stroke-width="1.6" stroke-linecap="round" stroke-linejoin="round"/>
<path d="M34 588 L34 580" fill="none" stroke="#A8A8B8" stroke-width="1.6" stroke-linecap="round" stroke-linejoin="round"/>
<path d="M38 590 L38 583 q0 -4 4 -4 q3 0 3 4 L40 594" fill="none" stroke="#A8A8B8" stroke-width="1.6" stroke-linecap="round" stroke-linejoin="round"/>
<line x1="16" y1="610" x2="48" y2="610" stroke="#2F2F3B" stroke-width="1" stroke-linecap="round"/>
<circle cx="32" cy="632" r="8.5" fill="none" stroke="#A8A8B8" stroke-width="1.6"/>
<path d="M32 623.5 a8.5 8.5 0 0 1 0 17 z" fill="#A8A8B8"/>
<rect x="14" y="672" width="26" height="26" rx="5" fill="#6C4CF1"/>
<rect x="24" y="682" width="26" height="26" rx="5" fill="#2A2A34"/>
<rect x="24" y="688" width="6" height="6" rx="0" fill="#22222B"/>
<rect x="24" y="700" width="6" height="6" rx="0" fill="#22222B"/>
<rect x="30" y="682" width="6" height="6" rx="0" fill="#22222B"/>
<rect x="30" y="694" width="6" height="6" rx="0" fill="#22222B"/>
<rect x="30" y="706" width="6" height="2" rx="0" fill="#22222B"/>
<rect x="36" y="688" width="6" height="6" rx="0" fill="#22222B"/>
<rect x="36" y="700" width="6" height="6" rx="0" fill="#22222B"/>
<rect x="42" y="682" width="6" height="6" rx="0" fill="#22222B"/>
<rect x="42" y="694" width="6" height="6" rx="0" fill="#22222B"/>
<rect x="42" y="706" width="6" height="2" rx="0" fill="#22222B"/>
<rect x="48" y="688" width="2" height="6" rx="0" fill="#22222B"/>
<rect x="48" y="700" width="2" height="6" rx="0" fill="#22222B"/>
<rect x="24" y="682" width="26" height="26" rx="5" fill="none" stroke="#2F2F3B" stroke-width="1"/>
<rect x="64" y="56" width="1080" height="44" rx="0" fill="#121218"/>
<line x1="64" y1="100" x2="1144" y2="100" stroke="#2F2F3B" stroke-width="1" stroke-linecap="round"/>
<text x="84" y="83" font-family="Inter, &apos;Segoe UI&apos;, Roboto, Arial, sans-serif" font-size="12" font-weight="400" fill="#6E6E80" text-anchor="start">Кисть:</text>
<text x="124" y="83" font-family="Inter, &apos;Segoe UI&apos;, Roboto, Arial, sans-serif" font-size="13" font-weight="500" fill="#F2F2F7" text-anchor="start">Мягкая круглая ▾</text>
<line x1="272" y1="68" x2="272" y2="88" stroke="#2F2F3B" stroke-width="1" stroke-linecap="round"/>
<text x="288" y="83" font-family="Inter, &apos;Segoe UI&apos;, Roboto, Arial, sans-serif" font-size="12" font-weight="400" fill="#6E6E80" text-anchor="start">Размер</text>
<rect x="336" y="68" width="64" height="24" rx="6" fill="#24242E"/>
<text x="368" y="84" font-family="&apos;JetBrains Mono&apos;, Consolas, &apos;Courier New&apos;, monospace" font-size="12" font-weight="500" fill="#F2F2F7" text-anchor="middle">24 px</text>
<text x="420" y="83" font-family="Inter, &apos;Segoe UI&apos;, Roboto, Arial, sans-serif" font-size="12" font-weight="400" fill="#6E6E80" text-anchor="start">Жёсткость</text>
<rect x="488" y="80" width="90" height="4" rx="2" fill="#2E2E3A"/>
<rect x="488" y="80" width="63" height="4" rx="2" fill="url(#cool)"/>
<circle cx="551" cy="82" r="8" fill="#FFFFFF" stroke="#6C4CF1" stroke-width="2"/>
<text x="590" y="83" font-family="&apos;JetBrains Mono&apos;, Consolas, &apos;Courier New&apos;, monospace" font-size="12" font-weight="400" fill="#F2F2F7" text-anchor="start">70%</text>
<text x="640" y="83" font-family="Inter, &apos;Segoe UI&apos;, Roboto, Arial, sans-serif" font-size="12" font-weight="400" fill="#6E6E80" text-anchor="start">Непрозр.</text>
<rect x="700" y="80" width="70" height="4" rx="2" fill="#2E2E3A"/>
<rect x="700" y="80" width="70" height="4" rx="2" fill="url(#cool)"/>
<circle cx="770" cy="82" r="8" fill="#FFFFFF" stroke="#6C4CF1" stroke-width="2"/>
<text x="782" y="83" font-family="&apos;JetBrains Mono&apos;, Consolas, &apos;Courier New&apos;, monospace" font-size="12" font-weight="400" fill="#F2F2F7" text-anchor="start">100%</text>
<line x1="840" y1="68" x2="840" y2="88" stroke="#2F2F3B" stroke-width="1" stroke-linecap="round"/>
<text x="856" y="83" font-family="Inter, &apos;Segoe UI&apos;, Roboto, Arial, sans-serif" font-size="12" font-weight="400" fill="#6E6E80" text-anchor="start">Режим:</text>
<text x="908" y="83" font-family="Inter, &apos;Segoe UI&apos;, Roboto, Arial, sans-serif" font-size="13" font-weight="500" fill="#F2F2F7" text-anchor="start">Нормальный ▾</text>
<rect x="1024" y="66" width="81.6" height="26" rx="13" fill="#24242E"/>
<text x="1064.8" y="83" font-family="Inter, &apos;Segoe UI&apos;, Roboto, Arial, sans-serif" font-size="12" font-weight="500" fill="#A8A8B8" text-anchor="middle">+ Пресет</text>
<rect x="1144" y="56" width="296" height="44" rx="0" fill="#121218"/>
<line x1="1144" y1="100" x2="1440" y2="100" stroke="#2F2F3B" stroke-width="1" stroke-linecap="round"/>
<rect x="1162" y="70" width="11" height="11" rx="2" fill="none" stroke="#A8A8B8" stroke-width="1.6"/>
<rect x="1167" y="75" width="11" height="11" rx="2" fill="none" stroke="#A8A8B8" stroke-width="1.6"/>
<circle cx="1206" cy="78" r="7.65" fill="none" stroke="#A8A8B8" stroke-width="1.6"/>
<path d="M1206 70.35 a7.65 7.65 0 0 1 0 15.3 z" fill="#A8A8B8"/>
<rect x="1236" y="74" width="12" height="11" rx="2" fill="none" stroke="#A8A8B8" stroke-width="1.6"/>
<path d="M1235 72 h14" fill="none" stroke="#A8A8B8" stroke-width="1.6" stroke-linecap="round" stroke-linejoin="round"/>
<path d="M1240 72 v-3 h5 v3" fill="none" stroke="#A8A8B8" stroke-width="1.6" stroke-linecap="round" stroke-linejoin="round"/>
<text x="1276" y="83" font-family="Inter, &apos;Segoe UI&apos;, Roboto, Arial, sans-serif" font-size="11" font-weight="400" fill="#6E6E80" text-anchor="start">Выделение: нет</text>
<rect x="64" y="100" width="1080" height="900" rx="0" fill="#16161C"/>
<rect x="64" y="100" width="1080" height="20" rx="0" fill="#24242E"/>
<rect x="64" y="100" width="20" height="900" rx="0" fill="#24242E"/>
<line x1="64" y1="112" x2="64" y2="120" stroke="#2F2F3B" stroke-width="1" stroke-linecap="round"/>
<line x1="114" y1="116" x2="114" y2="120" stroke="#2F2F3B" stroke-width="1" stroke-linecap="round"/>
<line x1="164" y1="112" x2="164" y2="120" stroke="#2F2F3B" stroke-width="1" stroke-linecap="round"/>
<line x1="214" y1="116" x2="214" y2="120" stroke="#2F2F3B" stroke-width="1" stroke-linecap="round"/>
<line x1="264" y1="112" x2="264" y2="120" stroke="#2F2F3B" stroke-width="1" stroke-linecap="round"/>
<text x="267" y="115" font-family="&apos;JetBrains Mono&apos;, Consolas, &apos;Courier New&apos;, monospace" font-size="9" font-weight="400" fill="#6E6E80" text-anchor="start">200</text>
<line x1="314" y1="116" x2="314" y2="120" stroke="#2F2F3B" stroke-width="1" stroke-linecap="round"/>
<line x1="364" y1="112" x2="364" y2="120" stroke="#2F2F3B" stroke-width="1" stroke-linecap="round"/>
<line x1="414" y1="116" x2="414" y2="120" stroke="#2F2F3B" stroke-width="1" stroke-linecap="round"/>
<line x1="464" y1="112" x2="464" y2="120" stroke="#2F2F3B" stroke-width="1" stroke-linecap="round"/>
<text x="467" y="115" font-family="&apos;JetBrains Mono&apos;, Consolas, &apos;Courier New&apos;, monospace" font-size="9" font-weight="400" fill="#6E6E80" text-anchor="start">400</text>
<line x1="514" y1="116" x2="514" y2="120" stroke="#2F2F3B" stroke-width="1" stroke-linecap="round"/>
<line x1="564" y1="112" x2="564" y2="120" stroke="#2F2F3B" stroke-width="1" stroke-linecap="round"/>
<line x1="614" y1="116" x2="614" y2="120" stroke="#2F2F3B" stroke-width="1" stroke-linecap="round"/>
<line x1="664" y1="112" x2="664" y2="120" stroke="#2F2F3B" stroke-width="1" stroke-linecap="round"/>
<text x="667" y="115" font-family="&apos;JetBrains Mono&apos;, Consolas, &apos;Courier New&apos;, monospace" font-size="9" font-weight="400" fill="#6E6E80" text-anchor="start">600</text>
<line x1="714" y1="116" x2="714" y2="120" stroke="#2F2F3B" stroke-width="1" stroke-linecap="round"/>
<line x1="764" y1="112" x2="764" y2="120" stroke="#2F2F3B" stroke-width="1" stroke-linecap="round"/>
<line x1="814" y1="116" x2="814" y2="120" stroke="#2F2F3B" stroke-width="1" stroke-linecap="round"/>
<line x1="864" y1="112" x2="864" y2="120" stroke="#2F2F3B" stroke-width="1" stroke-linecap="round"/>
<text x="867" y="115" font-family="&apos;JetBrains Mono&apos;, Consolas, &apos;Courier New&apos;, monospace" font-size="9" font-weight="400" fill="#6E6E80" text-anchor="start">800</text>
<line x1="914" y1="116" x2="914" y2="120" stroke="#2F2F3B" stroke-width="1" stroke-linecap="round"/>
<line x1="964" y1="112" x2="964" y2="120" stroke="#2F2F3B" stroke-width="1" stroke-linecap="round"/>
<line x1="1014" y1="116" x2="1014" y2="120" stroke="#2F2F3B" stroke-width="1" stroke-linecap="round"/>
<line x1="1064" y1="112" x2="1064" y2="120" stroke="#2F2F3B" stroke-width="1" stroke-linecap="round"/>
<text x="1067" y="115" font-family="&apos;JetBrains Mono&apos;, Consolas, &apos;Courier New&apos;, monospace" font-size="9" font-weight="400" fill="#6E6E80" text-anchor="start">1000</text>
<line x1="1114" y1="116" x2="1114" y2="120" stroke="#2F2F3B" stroke-width="1" stroke-linecap="round"/>
<line x1="76" y1="100" x2="84" y2="100" stroke="#2F2F3B" stroke-width="1" stroke-linecap="round"/>
<line x1="80" y1="150" x2="84" y2="150" stroke="#2F2F3B" stroke-width="1" stroke-linecap="round"/>
<line x1="76" y1="200" x2="84" y2="200" stroke="#2F2F3B" stroke-width="1" stroke-linecap="round"/>
<line x1="80" y1="250" x2="84" y2="250" stroke="#2F2F3B" stroke-width="1" stroke-linecap="round"/>
<line x1="76" y1="300" x2="84" y2="300" stroke="#2F2F3B" stroke-width="1" stroke-linecap="round"/>
<line x1="80" y1="350" x2="84" y2="350" stroke="#2F2F3B" stroke-width="1" stroke-linecap="round"/>
<line x1="76" y1="400" x2="84" y2="400" stroke="#2F2F3B" stroke-width="1" stroke-linecap="round"/>
<line x1="80" y1="450" x2="84" y2="450" stroke="#2F2F3B" stroke-width="1" stroke-linecap="round"/>
<line x1="76" y1="500" x2="84" y2="500" stroke="#2F2F3B" stroke-width="1" stroke-linecap="round"/>
<line x1="80" y1="550" x2="84" y2="550" stroke="#2F2F3B" stroke-width="1" stroke-linecap="round"/>
<line x1="76" y1="600" x2="84" y2="600" stroke="#2F2F3B" stroke-width="1" stroke-linecap="round"/>
<line x1="80" y1="650" x2="84" y2="650" stroke="#2F2F3B" stroke-width="1" stroke-linecap="round"/>
<line x1="76" y1="700" x2="84" y2="700" stroke="#2F2F3B" stroke-width="1" stroke-linecap="round"/>
<line x1="80" y1="750" x2="84" y2="750" stroke="#2F2F3B" stroke-width="1" stroke-linecap="round"/>
<line x1="76" y1="800" x2="84" y2="800" stroke="#2F2F3B" stroke-width="1" stroke-linecap="round"/>
<line x1="80" y1="850" x2="84" y2="850" stroke="#2F2F3B" stroke-width="1" stroke-linecap="round"/>
<line x1="76" y1="900" x2="84" y2="900" stroke="#2F2F3B" stroke-width="1" stroke-linecap="round"/>
<line x1="80" y1="950" x2="84" y2="950" stroke="#2F2F3B" stroke-width="1" stroke-linecap="round"/>
<line x1="624" y1="120" x2="624" y2="1000" stroke="#3E8BFF" stroke-width="1" stroke-linecap="round" stroke-dasharray="6 4"/>
<line x1="84" y1="552" x2="1144" y2="552" stroke="#3E8BFF" stroke-width="1" stroke-linecap="round" stroke-dasharray="6 4"/>
<rect x="283" y="291" width="642" height="422" rx="0" fill="#FFFFFF" opacity="0.25"/>
<rect x="284" y="292" width="640" height="420" rx="0" fill="url(#photo)"/>
<circle cx="804" cy="422" r="78" fill="url(#sun)" opacity="0.85"/>
<path d="M284 712 L464 492 L624 712 L284 712 Z" fill="#0E0E13" opacity="0.45"/>
<path d="M484 712 L684 542 L904 712 L484 712 Z" fill="#0E0E13" opacity="0.3"/>
<text x="324" y="412" font-family="Inter, &apos;Segoe UI&apos;, Roboto, Arial, sans-serif" font-size="54" font-weight="700" fill="#FFFFFF" text-anchor="start" letter-spacing="2">SUMMER</text>
<text x="324" y="462" font-family="Inter, &apos;Segoe UI&apos;, Roboto, Arial, sans-serif" font-size="54" font-weight="700" fill="#FFFFFF" text-anchor="start" letter-spacing="2" opacity="0.85">SALE 2025</text>
<rect x="324" y="502" width="180" height="44" rx="22" fill="url(#skywarm)"/>
<text x="414" y="530" font-family="Inter, &apos;Segoe UI&apos;, Roboto, Arial, sans-serif" font-size="15" font-weight="600" fill="#FFFFFF" text-anchor="middle">Смотреть</text>
<rect x="280" y="288" width="8" height="8" rx="1" fill="#FFFFFF" stroke="#6C4CF1" stroke-width="1.5"/>
<rect x="920" y="288" width="8" height="8" rx="1" fill="#FFFFFF" stroke="#6C4CF1" stroke-width="1.5"/>
<rect x="280" y="708" width="8" height="8" rx="1" fill="#FFFFFF" stroke="#6C4CF1" stroke-width="1.5"/>
<rect x="920" y="708" width="8" height="8" rx="1" fill="#FFFFFF" stroke="#6C4CF1" stroke-width="1.5"/>
<rect x="600" y="288" width="8" height="8" rx="1" fill="#FFFFFF" stroke="#6C4CF1" stroke-width="1.5"/>
<rect x="600" y="708" width="8" height="8" rx="1" fill="#FFFFFF" stroke="#6C4CF1" stroke-width="1.5"/>
<rect x="280" y="498" width="8" height="8" rx="1" fill="#FFFFFF" stroke="#6C4CF1" stroke-width="1.5"/>
<rect x="920" y="498" width="8" height="8" rx="1" fill="#FFFFFF" stroke="#6C4CF1" stroke-width="1.5"/>
<line x1="284" y1="552" x2="924" y2="552" stroke="#F14CA6" stroke-width="1" stroke-linecap="round"/>
<rect x="584" y="542" width="74" height="20" rx="4" fill="#F14CA6"/>
<text x="621" y="556" font-family="&apos;JetBrains Mono&apos;, Consolas, &apos;Courier New&apos;, monospace" font-size="10" font-weight="400" fill="#FFFFFF" text-anchor="middle">640 px</text>
<rect x="454" y="732" width="320" height="40" rx="10" fill="#24242E" stroke="#2F2F3B" stroke-width="1" opacity="0.98"/>
<rect x="476" y="744" width="11" height="11" rx="2" fill="none" stroke="#A8A8B8" stroke-width="1.6"/>
<rect x="481" y="749" width="11" height="11" rx="2" fill="none" stroke="#A8A8B8" stroke-width="1.6"/>
<circle cx="528" cy="752" r="7.65" fill="none" stroke="#A8A8B8" stroke-width="1.6"/>
<path d="M528 744.35 a7.65 7.65 0 0 1 0 15.3 z" fill="#A8A8B8"/>
<path d="M572 743 L572 761" fill="none" stroke="#A8A8B8" stroke-width="1.6" stroke-linecap="round" stroke-linejoin="round"/>
<path d="M563 752 L581 752" fill="none" stroke="#A8A8B8" stroke-width="1.6" stroke-linecap="round" stroke-linejoin="round"/>
<path d="M567 747 L577 757" fill="none" stroke="#A8A8B8" stroke-width="1.6" stroke-linecap="round" stroke-linejoin="round"/>
<path d="M577 747 L567 757" fill="none" stroke="#A8A8B8" stroke-width="1.6" stroke-linecap="round" stroke-linejoin="round"/>
<path d="M615 744 l2.5 5.5 6 .7 -4.4 4.1 1.2 5.9 -5.3 -3 -5.3 3 1.2 -5.9 -4.4 -4.1 6 -.7 z" fill="#A8A8B8"/>
<rect x="654" y="748" width="12" height="11" rx="2" fill="none" stroke="#A8A8B8" stroke-width="1.6"/>
<path d="M653 746 h14" fill="none" stroke="#A8A8B8" stroke-width="1.6" stroke-linecap="round" stroke-linejoin="round"/>
<path d="M658 746 v-3 h5 v3" fill="none" stroke="#A8A8B8" stroke-width="1.6" stroke-linecap="round" stroke-linejoin="round"/>
<rect x="84" y="950" width="220" height="32" rx="8" fill="#24242E" stroke="#2F2F3B" stroke-width="1"/>
<text x="104" y="971" font-family="Inter, &apos;Segoe UI&apos;, Roboto, Arial, sans-serif" font-size="16" font-weight="400" fill="#A8A8B8" text-anchor="middle">−</text>
<text x="136" y="971" font-family="&apos;JetBrains Mono&apos;, Consolas, &apos;Courier New&apos;, monospace" font-size="12" font-weight="400" fill="#F2F2F7" text-anchor="middle">78%</text>
<text x="172" y="971" font-family="Inter, &apos;Segoe UI&apos;, Roboto, Arial, sans-serif" font-size="14" font-weight="400" fill="#A8A8B8" text-anchor="middle">+</text>
<line x1="196" y1="958" x2="196" y2="976" stroke="#2F2F3B" stroke-width="1" stroke-linecap="round"/>
<text x="232" y="971" font-family="Inter, &apos;Segoe UI&apos;, Roboto, Arial, sans-serif" font-size="11" font-weight="400" fill="#A8A8B8" text-anchor="middle">Вписать</text>
<text x="284" y="971" font-family="Inter, &apos;Segoe UI&apos;, Roboto, Arial, sans-serif" font-size="11" font-weight="400" fill="#A8A8B8" text-anchor="middle">100%</text>
<rect x="968" y="864" width="160" height="120" rx="8" fill="#24242E" stroke="#2F2F3B" stroke-width="1"/>
<rect x="1008" y="900" width="80" height="50" rx="2" fill="#FFFFFF" opacity="0.9"/>
<line x1="1008" y1="900" x2="1088" y2="900" stroke="#6C4CF1" stroke-width="2" stroke-linecap="round"/>
<line x1="1008" y1="950" x2="1088" y2="950" stroke="#6C4CF1" stroke-width="2" stroke-linecap="round"/>
<line x1="1008" y1="900" x2="1008" y2="950" stroke="#6C4CF1" stroke-width="2" stroke-linecap="round"/>
<line x1="1088" y1="900" x2="1088" y2="950" stroke="#6C4CF1" stroke-width="2" stroke-linecap="round"/>
<circle cx="760" cy="640" r="12" fill="none" stroke="#FFFFFF" stroke-width="1.5" opacity="0.9"/>
<line x1="744" y1="640" x2="776" y2="640" stroke="#FFFFFF" stroke-width="1" stroke-linecap="round" opacity="0.5"/>
<line x1="760" y1="624" x2="760" y2="656" stroke="#FFFFFF" stroke-width="1" stroke-linecap="round" opacity="0.5"/>
<rect x="778" y="626" width="96" height="24" rx="6" fill="#0E0E13" opacity="0.85"/>
<text x="826" y="643" font-family="&apos;JetBrains Mono&apos;, Consolas, &apos;Courier New&apos;, monospace" font-size="10" font-weight="400" fill="#FFFFFF" text-anchor="middle">24 px · 70%</text>
<rect x="1144" y="100" width="296" height="900" rx="0" fill="#1B1B23"/>
<line x1="1144" y1="100" x2="1144" y2="1000" stroke="#2F2F3B" stroke-width="1" stroke-linecap="round"/>
<rect x="1156" y="116" width="40" height="40" rx="10" fill="#2A2440"/>
<path d="M1176 128 L1185 133 L1167 133 Z" fill="none" stroke="#8A73F5" stroke-width="1.6" stroke-linecap="round" stroke-linejoin="round"/>
<path d="M1167 137 L1176 142 L1185 137" fill="none" stroke="#8A73F5" stroke-width="1.6" stroke-linecap="round" stroke-linejoin="round"/>
<path d="M1221 136 a8 8 0 1 1 -3 -6" fill="none" stroke="#A8A8B8" stroke-width="1.6" stroke-linecap="round" stroke-linejoin="round"/>
<path d="M1212 128 L1211 134 L1217 133" fill="none" stroke="#A8A8B8" stroke-width="1.6" stroke-linecap="round" stroke-linejoin="round"/>
<path d="M1220 132 L1220 137" fill="none" stroke="#A8A8B8" stroke-width="1.6" stroke-linecap="round" stroke-linejoin="round"/>
<rect x="1255" y="127" width="12" height="12" rx="2" fill="none" stroke="#A8A8B8" stroke-width="1.6"/>
<circle cx="1269" cy="140" r="5" fill="none" stroke="#A8A8B8" stroke-width="1.6"/>
<path d="M1314.65 127.45 L1306 138" fill="none" stroke="#A8A8B8" stroke-width="1.6" stroke-linecap="round" stroke-linejoin="round"/>
<path d="M1304 138 q-6 2 -6 8 q6 1 8 -5 z" fill="#A8A8B8" opacity="0.9"/>
<path d="M1352 127 L1352 145" fill="none" stroke="#A8A8B8" stroke-width="1.6" stroke-linecap="round" stroke-linejoin="round"/>
<path d="M1343 136 L1361 136" fill="none" stroke="#A8A8B8" stroke-width="1.6" stroke-linecap="round" stroke-linejoin="round"/>
<path d="M1347 131 L1357 141" fill="none" stroke="#A8A8B8" stroke-width="1.6" stroke-linecap="round" stroke-linejoin="round"/>
<path d="M1357 131 L1347 141" fill="none" stroke="#A8A8B8" stroke-width="1.6" stroke-linecap="round" stroke-linejoin="round"/>
<circle cx="1396" cy="136" r="4" fill="none" stroke="#A8A8B8" stroke-width="1.6"/>
<line x1="1403" y1="136" x2="1406" y2="136" stroke="#A8A8B8" stroke-width="1.6" stroke-linecap="round"/>
<line x1="1400.95" y1="140.95" x2="1403.07" y2="143.071" stroke="#A8A8B8" stroke-width="1.6" stroke-linecap="round"/>
<line x1="1396" y1="143" x2="1396" y2="146" stroke="#A8A8B8" stroke-width="1.6" stroke-linecap="round"/>
<line x1="1391.05" y1="140.95" x2="1388.93" y2="143.071" stroke="#A8A8B8" stroke-width="1.6" stroke-linecap="round"/>
<line x1="1389" y1="136" x2="1386" y2="136" stroke="#A8A8B8" stroke-width="1.6" stroke-linecap="round"/>
<line x1="1391.05" y1="131.05" x2="1388.93" y2="128.929" stroke="#A8A8B8" stroke-width="1.6" stroke-linecap="round"/>
<line x1="1396" y1="129" x2="1396" y2="126" stroke="#A8A8B8" stroke-width="1.6" stroke-linecap="round"/>
<line x1="1400.95" y1="131.05" x2="1403.07" y2="128.929" stroke="#A8A8B8" stroke-width="1.6" stroke-linecap="round"/>
<line x1="1160" y1="168" x2="1424" y2="168" stroke="#2F2F3B" stroke-width="1" stroke-linecap="round"/>
<text x="1164" y="196" font-family="Inter, &apos;Segoe UI&apos;, Roboto, Arial, sans-serif" font-size="15" font-weight="600" fill="#F2F2F7" text-anchor="start">Слои</text>
<text x="1424" y="196" font-family="Inter, &apos;Segoe UI&apos;, Roboto, Arial, sans-serif" font-size="12" font-weight="400" fill="#6E6E80" text-anchor="end">18</text>
<rect x="1152" y="212" width="280" height="52" rx="8" fill="#2A2440"/>
<rect x="1152" y="212" width="3" height="52" rx="2" fill="#6C4CF1"/>
<rect x="1164" y="222" width="32" height="32" rx="4" fill="#2E2E3A" opacity="1"/>
<text x="1180" y="244" font-family="Inter, &apos;Segoe UI&apos;, Roboto, Arial, sans-serif" font-size="13" font-weight="700" fill="#FFFFFF" text-anchor="middle">Aa</text>
<text x="1206" y="236" font-family="Inter, &apos;Segoe UI&apos;, Roboto, Arial, sans-serif" font-size="12.5" font-weight="500" fill="#F2F2F7" text-anchor="start">Текст: SUMMER SALE</text>
<text x="1206" y="252" font-family="Inter, &apos;Segoe UI&apos;, Roboto, Arial, sans-serif" font-size="10" font-weight="400" fill="#6E6E80" text-anchor="start">Нормальный · 100%</text>
<path d="M1343 238 q9 -7 18 0 q-9 7 -18 0 z" fill="none" stroke="#A8A8B8" stroke-width="1.3" stroke-linecap="round" stroke-linejoin="round"/>
<circle cx="1352" cy="238" r="2.6" fill="#A8A8B8"/>
<rect x="1394" y="237" width="12" height="9" rx="2" fill="none" stroke="#A8A8B8" stroke-width="1.3"/>
<path d="M1396 237 v-3 a4 4 0 0 1 8 0 v3" fill="none" stroke="#A8A8B8" stroke-width="1.3" stroke-linecap="round" stroke-linejoin="round"/>
<rect x="1164" y="278" width="32" height="32" rx="4" fill="url(#photo)" opacity="1"/>
<text x="1206" y="292" font-family="Inter, &apos;Segoe UI&apos;, Roboto, Arial, sans-serif" font-size="12.5" font-weight="500" fill="#F2F2F7" text-anchor="start">Кнопка «Смотреть»</text>
<text x="1206" y="308" font-family="Inter, &apos;Segoe UI&apos;, Roboto, Arial, sans-serif" font-size="10" font-weight="400" fill="#6E6E80" text-anchor="start">Нормальный · 100%</text>
<path d="M1343 294 q9 -7 18 0 q-9 7 -18 0 z" fill="none" stroke="#A8A8B8" stroke-width="1.3" stroke-linecap="round" stroke-linejoin="round"/>
<circle cx="1352" cy="294" r="2.6" fill="#A8A8B8"/>
<rect x="1394" y="293" width="12" height="9" rx="2" fill="none" stroke="#A8A8B8" stroke-width="1.3"/>
<path d="M1396 293 v-3 a4 4 0 0 1 8 0 v3" fill="none" stroke="#A8A8B8" stroke-width="1.3" stroke-linecap="round" stroke-linejoin="round"/>
<rect x="1164" y="334" width="32" height="32" rx="4" fill="url(#photo)" opacity="1"/>
<text x="1206" y="348" font-family="Inter, &apos;Segoe UI&apos;, Roboto, Arial, sans-serif" font-size="12.5" font-weight="500" fill="#F2F2F7" text-anchor="start">Солнце (градиент)</text>
<text x="1206" y="364" font-family="Inter, &apos;Segoe UI&apos;, Roboto, Arial, sans-serif" font-size="10" font-weight="400" fill="#6E6E80" text-anchor="start">Нормальный · 100%</text>
<path d="M1343 350 q9 -7 18 0 q-9 7 -18 0 z" fill="none" stroke="#A8A8B8" stroke-width="1.3" stroke-linecap="round" stroke-linejoin="round"/>
<circle cx="1352" cy="350" r="2.6" fill="#A8A8B8"/>
<rect x="1394" y="349" width="12" height="9" rx="2" fill="none" stroke="#A8A8B8" stroke-width="1.3"/>
<path d="M1396 349 v-3 a4 4 0 0 1 8 0 v3" fill="none" stroke="#A8A8B8" stroke-width="1.3" stroke-linecap="round" stroke-linejoin="round"/>
<rect x="1164" y="390" width="32" height="32" rx="4" fill="url(#photo)" opacity="1"/>
<text x="1206" y="404" font-family="Inter, &apos;Segoe UI&apos;, Roboto, Arial, sans-serif" font-size="12.5" font-weight="500" fill="#F2F2F7" text-anchor="start">Горы — передний</text>
<text x="1206" y="420" font-family="Inter, &apos;Segoe UI&apos;, Roboto, Arial, sans-serif" font-size="10" font-weight="400" fill="#6E6E80" text-anchor="start">Нормальный · 100%</text>
<path d="M1343 406 q9 -7 18 0 q-9 7 -18 0 z" fill="none" stroke="#A8A8B8" stroke-width="1.3" stroke-linecap="round" stroke-linejoin="round"/>
<circle cx="1352" cy="406" r="2.6" fill="#A8A8B8"/>
<circle cx="1376" cy="406" r="6" fill="none" stroke="#8A73F5" stroke-width="1.3"/>
<path d="M1376 400 a6 6 0 0 1 0 12 z" fill="#8A73F5"/>
<rect x="1394" y="405" width="12" height="9" rx="2" fill="none" stroke="#A8A8B8" stroke-width="1.3"/>
<path d="M1396 405 v-3 a4 4 0 0 1 8 0 v3" fill="none" stroke="#A8A8B8" stroke-width="1.3" stroke-linecap="round" stroke-linejoin="round"/>
<rect x="1164" y="446" width="32" height="32" rx="4" fill="url(#photo)" opacity="0.5"/>
<text x="1206" y="460" font-family="Inter, &apos;Segoe UI&apos;, Roboto, Arial, sans-serif" font-size="12.5" font-weight="500" fill="#F2F2F7" text-anchor="start">Горы — задний</text>
<text x="1206" y="476" font-family="Inter, &apos;Segoe UI&apos;, Roboto, Arial, sans-serif" font-size="10" font-weight="400" fill="#6E6E80" text-anchor="start">Нормальный · 100%</text>
<path d="M1343 462 q9 -7 18 0 q-9 7 -18 0 z" fill="none" stroke="#A8A8B8" stroke-width="1.3" stroke-linecap="round" stroke-linejoin="round"/>
<circle cx="1352" cy="462" r="2.6" fill="#A8A8B8"/>
<rect x="1394" y="461" width="12" height="9" rx="2" fill="none" stroke="#A8A8B8" stroke-width="1.3"/>
<path d="M1396 461 v-3 a4 4 0 0 1 8 0 v3" fill="none" stroke="#A8A8B8" stroke-width="1.3" stroke-linecap="round" stroke-linejoin="round"/>
<rect x="1164" y="502" width="32" height="32" rx="4" fill="url(#photo)" opacity="1"/>
<text x="1206" y="516" font-family="Inter, &apos;Segoe UI&apos;, Roboto, Arial, sans-serif" font-size="12.5" font-weight="500" fill="#6E6E80" text-anchor="start">Фон-фото</text>
<text x="1206" y="532" font-family="Inter, &apos;Segoe UI&apos;, Roboto, Arial, sans-serif" font-size="10" font-weight="400" fill="#6E6E80" text-anchor="start">Нормальный · 100%</text>
<path d="M1343 518 q9 -7 18 0 q-9 7 -18 0 z" fill="none" stroke="#6E6E80" stroke-width="1.3" stroke-linecap="round" stroke-linejoin="round"/>
<circle cx="1352" cy="518" r="2.6" fill="#6E6E80"/>
<rect x="1394" y="517" width="12" height="9" rx="2" fill="none" stroke="#6E6E80" stroke-width="1.3"/>
<path d="M1396 517 v-3 a4 4 0 0 1 8 0 v3" fill="none" stroke="#6E6E80" stroke-width="1.3" stroke-linecap="round" stroke-linejoin="round"/>
<line x1="1160" y1="556" x2="1424" y2="556" stroke="#2F2F3B" stroke-width="1" stroke-linecap="round"/>
<text x="1164" y="582" font-family="Inter, &apos;Segoe UI&apos;, Roboto, Arial, sans-serif" font-size="11" font-weight="600" fill="#6E6E80" text-anchor="start" letter-spacing="1.2">ТРАНСФОРМАЦИЯ</text>
<text x="1164" y="610" font-family="Inter, &apos;Segoe UI&apos;, Roboto, Arial, sans-serif" font-size="11" font-weight="400" fill="#6E6E80" text-anchor="start">X</text>
<rect x="1186" y="598" width="100" height="30" rx="6" fill="#24242E"/>
<text x="1200" y="618" font-family="&apos;JetBrains Mono&apos;, Consolas, &apos;Courier New&apos;, monospace" font-size="12" font-weight="400" fill="#F2F2F7" text-anchor="start">320</text>
<text x="1296" y="610" font-family="Inter, &apos;Segoe UI&apos;, Roboto, Arial, sans-serif" font-size="11" font-weight="400" fill="#6E6E80" text-anchor="start">Y</text>
<rect x="1318" y="598" width="100" height="30" rx="6" fill="#24242E"/>
<text x="1332" y="618" font-family="&apos;JetBrains Mono&apos;, Consolas, &apos;Courier New&apos;, monospace" font-size="12" font-weight="400" fill="#F2F2F7" text-anchor="start">180</text>
<text x="1164" y="654" font-family="Inter, &apos;Segoe UI&apos;, Roboto, Arial, sans-serif" font-size="11" font-weight="400" fill="#6E6E80" text-anchor="start">Ш</text>
<rect x="1186" y="642" width="100" height="30" rx="6" fill="#24242E"/>
<text x="1200" y="662" font-family="&apos;JetBrains Mono&apos;, Consolas, &apos;Courier New&apos;, monospace" font-size="12" font-weight="400" fill="#F2F2F7" text-anchor="start">1240</text>
<text x="1296" y="654" font-family="Inter, &apos;Segoe UI&apos;, Roboto, Arial, sans-serif" font-size="11" font-weight="400" fill="#6E6E80" text-anchor="start">В</text>
<rect x="1318" y="642" width="100" height="30" rx="6" fill="#24242E"/>
<text x="1332" y="662" font-family="&apos;JetBrains Mono&apos;, Consolas, &apos;Courier New&apos;, monospace" font-size="12" font-weight="400" fill="#F2F2F7" text-anchor="start">860</text>
<text x="1164" y="718" font-family="Inter, &apos;Segoe UI&apos;, Roboto, Arial, sans-serif" font-size="11" font-weight="600" fill="#6E6E80" text-anchor="start" letter-spacing="1.2">НАЛОЖЕНИЕ</text>
<text x="1164" y="744" font-family="Inter, &apos;Segoe UI&apos;, Roboto, Arial, sans-serif" font-size="12" font-weight="400" fill="#A8A8B8" text-anchor="start">Непрозрачность</text>
<rect x="1164" y="762" width="200" height="4" rx="2" fill="#2E2E3A"/>
<rect x="1164" y="762" width="200" height="4" rx="2" fill="url(#cool)"/>
<circle cx="1364" cy="764" r="8" fill="#FFFFFF" stroke="#6C4CF1" stroke-width="2"/>
<text x="1372" y="748" font-family="&apos;JetBrains Mono&apos;, Consolas, &apos;Courier New&apos;, monospace" font-size="12" font-weight="400" fill="#F2F2F7" text-anchor="start">100%</text>
<rect x="1164" y="784" width="260" height="30" rx="6" fill="#24242E"/>
<text x="1178" y="804" font-family="Inter, &apos;Segoe UI&apos;, Roboto, Arial, sans-serif" font-size="12" font-weight="400" fill="#F2F2F7" text-anchor="start">Режим: Нормальный</text>
<text x="1164" y="848" font-family="Inter, &apos;Segoe UI&apos;, Roboto, Arial, sans-serif" font-size="11" font-weight="600" fill="#6E6E80" text-anchor="start" letter-spacing="1.2">ЭФФЕКТЫ СЛОЯ</text>
<text x="1164" y="880" font-family="Inter, &apos;Segoe UI&apos;, Roboto, Arial, sans-serif" font-size="12" font-weight="400" fill="#A8A8B8" text-anchor="start">Обводка</text>
<text x="1424" y="880" font-family="Inter, &apos;Segoe UI&apos;, Roboto, Arial, sans-serif" font-size="14" font-weight="400" fill="#6E6E80" text-anchor="end">+</text>
<line x1="1164" y1="888" x2="1424" y2="888" stroke="#2F2F3B" stroke-width="1" stroke-linecap="round"/>
<text x="1164" y="912" font-family="Inter, &apos;Segoe UI&apos;, Roboto, Arial, sans-serif" font-size="12" font-weight="400" fill="#A8A8B8" text-anchor="start">Тень</text>
<text x="1424" y="912" font-family="Inter, &apos;Segoe UI&apos;, Roboto, Arial, sans-serif" font-size="14" font-weight="400" fill="#6E6E80" text-anchor="end">+</text>
<line x1="1164" y1="920" x2="1424" y2="920" stroke="#2F2F3B" stroke-width="1" stroke-linecap="round"/>
<text x="1164" y="944" font-family="Inter, &apos;Segoe UI&apos;, Roboto, Arial, sans-serif" font-size="12" font-weight="400" fill="#A8A8B8" text-anchor="start">Внутренняя тень</text>
<text x="1424" y="944" font-family="Inter, &apos;Segoe UI&apos;, Roboto, Arial, sans-serif" font-size="14" font-weight="400" fill="#6E6E80" text-anchor="end">+</text>
<line x1="1164" y1="952" x2="1424" y2="952" stroke="#2F2F3B" stroke-width="1" stroke-linecap="round"/>
<text x="1164" y="976" font-family="Inter, &apos;Segoe UI&apos;, Roboto, Arial, sans-serif" font-size="12" font-weight="400" fill="#A8A8B8" text-anchor="start">Свечение</text>
<text x="1424" y="976" font-family="Inter, &apos;Segoe UI&apos;, Roboto, Arial, sans-serif" font-size="14" font-weight="400" fill="#6E6E80" text-anchor="end">+</text>
<line x1="1164" y1="984" x2="1424" y2="984" stroke="#2F2F3B" stroke-width="1" stroke-linecap="round"/>
<rect x="64" y="1000" width="1080" height="24" rx="0" fill="#1B1B23"/>
<text x="80" y="1016" font-family="&apos;JetBrains Mono&apos;, Consolas, &apos;Courier New&apos;, monospace" font-size="11" font-weight="400" fill="#A8A8B8" text-anchor="start">78%</text>
<line x1="120" y1="1006" x2="120" y2="1018" stroke="#2F2F3B" stroke-width="1" stroke-linecap="round"/>
<text x="136" y="1016" font-family="&apos;JetBrains Mono&apos;, Consolas, &apos;Courier New&apos;, monospace" font-size="11" font-weight="400" fill="#A8A8B8" text-anchor="start">640 × 420 px</text>
<line x1="240" y1="1006" x2="240" y2="1018" stroke="#2F2F3B" stroke-width="1" stroke-linecap="round"/>
<text x="256" y="1016" font-family="&apos;JetBrains Mono&apos;, Consolas, &apos;Courier New&apos;, monospace" font-size="11" font-weight="400" fill="#6E6E80" text-anchor="start">X: 540  Y: 380</text>
<line x1="384" y1="1006" x2="384" y2="1018" stroke="#2F2F3B" stroke-width="1" stroke-linecap="round"/>
<text x="400" y="1016" font-family="&apos;JetBrains Mono&apos;, Consolas, &apos;Courier New&apos;, monospace" font-size="11" font-weight="400" fill="#6E6E80" text-anchor="start">RGB / sRGB</text>
<text x="1130" y="1016" font-family="Inter, &apos;Segoe UI&apos;, Roboto, Arial, sans-serif" font-size="11" font-weight="400" fill="#2FBF71" text-anchor="end">Автосохранение: вкл</text>
</svg>
